<?xml version="1.0" encoding="UTF-8" standalone="no"?><svg xmlns="http://www.w3.org/2000/svg" xmlns:xlink="http://www.w3.org/1999/xlink" clip-rule="evenodd" stroke-miterlimit="4.00" viewBox="0 0 1024 768"><desc>SVG generated by Keynote</desc><defs></defs><g transform="matrix(1.00, 0.00, -0.00, -1.00, 0.0, 768.0)"><path d="M 0.0 768.0 L 1024.0 768.0 L 1024.0 0.0 L 0.0 0.0 Z M 0.0 768.0 " fill="#FEFFFF"></path><path d="M 254.8 684.0 L 769.2 684.0 C 781.4 684.0 787.7 684.0 794.3 681.9 C 801.6 679.3 807.3 673.6 809.9 666.3 C 812.0 659.7 812.0 653.4 812.0 641.0 L 812.0 126.8 C 812.0 114.6 812.0 108.3 809.9 101.7 C 807.3 94.4 801.6 88.7 794.3 86.1 C 787.7 84.0 781.4 84.0 769.0 84.0 L 254.8 84.0 C 242.6 84.0 236.3 84.0 229.7 86.1 C 222.4 88.7 216.7 94.4 214.1 101.7 C 212.0 108.3 212.0 114.6 212.0 127.0 L 212.0 641.2 C 212.0 653.4 212.0 659.7 214.1 666.3 C 216.7 673.6 222.4 679.3 229.7 681.9 C 236.3 684.0 242.6 684.0 255.0 684.0 Z M 254.8 684.0 " fill="#FFCB3F"></path><path d="M 688.4 338.8 C 785.2 295.4 785.2 225.1 688.4 181.7 C 591.5 138.4 434.5 138.4 337.6 181.7 C 240.8 225.1 240.8 295.4 337.6 338.8 C 434.5 382.1 591.5 382.1 688.4 338.8 Z M 688.4 338.8 " fill="#E2DED4"></path><path d="M 363.3 434.2 L 507.0 401.3 L 508.7 228.4 L 366.8 259.7 L 363.3 434.2 Z M 363.3 434.2 " fill="#FEFB40"></path><path d="M 0.0 0.0 L 143.7 32.9 L 145.3 205.8 L 3.5 174.5 L 0.0 0.0 Z M 0.0 0.0 " fill="none" stroke="#987B25" stroke-width="6.00" transform="matrix(1.00, 0.00, 0.00, -1.00, 363.3, 434.2)"></path><path d="M 361.6 453.1 L 510.1 420.2 L 663.3 453.5 C 667.7 463.1 664.2 475.6 655.7 481.1 C 649.4 485.2 641.6 484.2 636.2 489.5 C 631.5 494.1 630.3 501.9 626.6 507.5 C 621.5 515.3 612.4 517.7 604.1 517.6 C 597.3 517.5 590.1 515.8 584.0 519.5 C 577.4 523.6 573.1 533.6 565.5 533.8 C 559.1 533.9 553.8 526.3 547.3 527.6 C 540.9 528.9 538.2 537.6 532.6 541.2 C 522.8 547.5 512.4 536.2 501.9 536.8 C 493.2 537.3 485.2 545.9 476.4 542.6 C 470.5 540.4 467.0 532.9 461.1 530.6 C 455.6 528.4 449.8 531.3 444.2 530.1 C 437.1 528.7 432.0 521.5 425.1 519.8 C 417.5 517.9 410.1 522.7 402.2 520.1 C 393.7 517.3 389.2 508.2 383.0 501.9 C 376.3 495.1 366.9 491.9 361.4 484.2 C 355.1 475.4 355.4 462.5 361.6 453.1 Z M 361.6 453.1 " fill="#CCA232"></path><path d="M 4.8 90.3 L 153.3 123.2 L 306.5 89.9 C 310.9 80.2 307.4 67.8 298.9 62.3 C 292.6 58.2 284.8 59.2 279.4 53.9 C 274.7 49.3 273.5 41.5 269.8 35.8 C 264.7 28.1 255.6 25.7 247.3 25.8 C 240.5 25.9 233.3 27.6 227.2 23.9 C 220.6 19.8 216.3 9.8 208.7 9.6 C 202.3 9.4 197.0 17.1 190.5 15.8 C 184.1 14.5 181.4 5.7 175.8 2.2 C 166.0 -4.1 155.6 7.2 145.1 6.6 C 136.4 6.1 128.4 -2.6 119.6 0.8 C 113.7 3.0 110.2 10.5 104.3 12.8 C 98.8 14.9 93.0 12.1 87.4 13.2 C 80.3 14.7 75.2 21.9 68.3 23.6 C 60.7 25.5 53.3 20.7 45.4 23.3 C 36.9 26.1 32.4 35.2 26.2 41.5 C 19.5 48.3 10.1 51.5 4.6 59.2 C -1.7 68.0 -1.4 80.9 4.8 90.3 Z M 4.8 90.3 " fill="none" stroke="#987B25" stroke-width="6.00" transform="matrix(1.00, 0.00, 0.00, -1.00, 356.8, 543.4)"></path><path d="M 661.3 434.2 L 510.6 400.7 L 513.4 228.3 L 657.8 259.7 L 661.3 434.2 Z M 661.3 434.2 " fill="#FEFB40"></path><path d="M 0.0 0.0 L 150.8 33.5 L 147.9 205.9 L 3.5 174.5 L 0.0 0.0 Z M 0.0 0.0 " fill="none" stroke="#987B25" stroke-width="6.00" transform="matrix(-1.00, 0.00, 0.00, -1.00, 661.3, 434.2)"></path><path d="M 360.1 436.1 L 360.1 455.5 L 510.6 423.2 L 665.9 454.7 L 664.9 435.3 L 510.3 402.2 L 360.1 436.1 Z M 360.1 436.1 " fill="#987B25"></path><path d="M 0.0 7.1 C 6.0 9.8 12.9 9.5 18.6 6.3 C 22.7 4.0 26.4 0.1 31.3 0.0 C 38.9 -0.1 43.0 8.7 50.1 10.4 C 58.2 12.4 64.9 5.1 72.8 3.2 C 80.0 1.5 87.4 4.2 91.8 10.2 " fill="none" stroke="#987B25" stroke-width="8.00" transform="matrix(0.77, -0.64, -0.64, -0.77, 553.1, 520.9)"></path><path d="M 0.0 9.6 C 9.0 13.2 19.3 12.8 27.9 8.5 C 34.1 5.4 39.6 0.1 47.0 0.0 C 58.3 -0.1 64.5 11.7 75.2 14.0 C 87.4 16.7 97.4 6.8 109.3 4.3 C 120.0 2.0 131.1 5.7 137.7 13.7 " fill="none" stroke="#987B25" stroke-width="8.00" transform="matrix(-1.00, 0.00, 0.00, -1.00, 580.6, 469.4)"></path><path d="M 0.0 12.1 C 8.0 16.7 17.3 16.2 24.9 10.8 C 30.5 6.8 35.4 0.1 42.1 0.0 C 52.2 -0.2 57.7 14.7 67.3 17.7 C 78.2 21.1 87.1 8.6 97.7 5.4 C 107.3 2.5 117.3 7.2 123.2 17.3 " fill="none" stroke="#987B25" stroke-width="8.00" transform="matrix(1.00, 0.00, 0.00, -1.00, 405.9, 508.7)"></path><path d="M 0.0 3.1 C 3.1 0.8 6.6 1.0 9.5 3.7 C 11.6 5.7 13.5 9.0 16.0 9.1 C 19.9 9.1 22.0 1.8 25.6 0.3 C 29.8 -1.4 33.2 4.8 37.3 6.4 C 40.9 7.8 44.7 5.5 46.9 0.5 " fill="none" stroke="#987B25" stroke-width="8.00" transform="matrix(0.77, -0.64, -0.64, -0.77, 383.8, 490.7)"></path></g></svg>