<?xml version="1.0" encoding="UTF-8"?>
<!DOCTYPE svg PUBLIC "-//W3C//DTD SVG 1.1//EN" "http://www.w3.org/Graphics/SVG/1.1/DTD/svg11.dtd">
<svg version="1.1" xmlns="http://www.w3.org/2000/svg" xmlns:xlink="http://www.w3.org/1999/xlink" x="0" y="0" width="270" height="270" viewBox="0, 0, 270, 270">
  <g id="Layer_1">
    <path d="M19.26,-0 L250.74,-0 C256.23,-0 259.065,-0 262.035,0.945 C265.32,2.115 267.885,4.68 269.055,7.965 C270,10.935 270,13.77 270,19.35 L270,250.74 C270,256.23 270,259.065 269.055,262.035 C267.885,265.32 265.32,267.885 262.035,269.055 C259.065,270 256.23,270 250.65,270 L19.26,270 C13.77,270 10.935,270 7.965,269.055 C4.68,267.885 2.115,265.32 0.945,262.035 C-0,259.065 -0,256.23 -0,250.65 L-0,19.26 C-0,13.77 -0,10.935 0.945,7.965 C2.115,4.68 4.68,2.115 7.965,0.945 C10.935,-0 13.77,-0 19.35,-0 z M19.26,-0" fill="#FFCB3F"/>
    <path d="M214.605,138.124 C258.165,158.077 258.165,190.399 214.605,210.353 C171,230.261 100.35,230.261 56.745,210.353 C13.185,190.399 13.185,158.077 56.745,138.124 C100.35,118.216 171,118.216 214.605,138.124 z M214.605,138.124" fill="#000000" opacity="0.296"/>
    <path d="M213.255,136.78 C256.815,156.31 256.815,187.945 213.255,207.475 C169.65,226.96 99,226.96 55.395,207.475 C11.835,187.945 11.835,156.31 55.395,136.78 C99,117.295 169.65,117.295 213.255,136.78 z M213.255,136.78" fill="#E2DED4"/>
    <path d="M188.724,148.968 C216.763,161.935 216.763,182.941 188.724,195.909 C160.656,208.847 115.18,208.847 87.112,195.909 C59.073,182.941 59.073,161.935 87.112,148.968 C115.18,136.029 160.656,136.029 188.724,148.968 z M188.724,148.968" fill="#000000" opacity="0.219"/>
    <path d="M66.96,93.85 L131.625,108.655 L132.39,186.46 L68.535,172.375 L66.96,93.85 z M66.96,93.85" fill="#FEFB40"/>
    <path d="M67.482,94.35 L132.147,109.155 L132.867,186.96 L69.057,172.875 L67.482,94.35 z M67.482,94.35" fill-opacity="0" stroke="#987B25" stroke-width="2.7"/>
    <path d="M66.195,85.337 L133.02,100.142 L201.96,85.157 C203.94,80.837 202.365,75.212 198.54,72.737 C195.705,70.892 192.195,71.342 189.765,68.957 C187.65,66.887 187.11,63.377 185.445,60.857 C183.15,57.347 179.055,56.267 175.32,56.312 C172.26,56.357 169.02,57.122 166.275,55.457 C163.305,53.612 161.37,49.112 157.95,49.022 C155.07,48.977 152.685,52.397 149.76,51.812 C146.88,51.227 145.665,47.312 143.145,45.692 C138.735,42.857 134.055,47.942 129.33,47.672 C125.415,47.447 121.815,43.577 117.855,45.062 C115.2,46.052 113.625,49.427 110.97,50.462 C108.495,51.452 105.885,50.147 103.365,50.687 C100.17,51.317 97.875,54.557 94.77,55.322 C91.35,56.177 88.02,54.017 84.465,55.187 C80.64,56.447 78.615,60.542 75.825,63.377 C72.81,66.437 68.58,67.877 66.105,71.342 C63.27,75.302 63.405,81.107 66.195,85.337 z M66.195,85.337" fill="#CCA232"/>
    <path d="M66.695,85.845 L133.52,100.65 L202.46,85.665 C204.44,81.3 202.865,75.72 199.04,73.245 C196.205,71.4 192.695,71.85 190.265,69.465 C188.15,67.395 187.61,63.885 185.945,61.32 C183.65,57.855 179.555,56.775 175.82,56.82 C172.76,56.865 169.52,57.63 166.775,55.965 C163.805,54.12 161.87,49.62 158.45,49.53 C155.57,49.44 153.185,52.905 150.26,52.32 C147.38,51.735 146.165,47.775 143.645,46.2 C139.235,43.365 134.555,48.45 129.83,48.18 C125.915,47.955 122.315,44.04 118.355,45.57 C115.7,46.56 114.125,49.935 111.47,50.97 C108.995,51.915 106.385,50.655 103.865,51.15 C100.67,51.825 98.375,55.065 95.27,55.83 C91.85,56.685 88.52,54.525 84.965,55.695 C81.14,56.955 79.115,61.05 76.325,63.885 C73.31,66.945 69.08,68.385 66.605,71.85 C63.77,75.81 63.905,81.615 66.695,85.845 z M66.695,85.845" fill-opacity="0" stroke="#987B25" stroke-width="2.7"/>
    <path d="M201.06,93.85 L133.245,108.925 L134.505,186.505 L199.485,172.375 L201.06,93.85 z M201.06,93.85" fill="#FEFB40"/>
    <path d="M201.582,94.35 L133.722,109.425 L135.027,187.005 L200.007,172.875 L201.582,94.35 z M201.582,94.35" fill-opacity="0" stroke="#987B25" stroke-width="2.7"/>
    <path d="M65.52,93.537 L65.52,84.807 L133.245,99.342 L203.13,85.167 L202.68,93.897 L133.11,108.792 L65.52,93.537 z M65.52,93.537" fill="#987B25"/>
    <path d="M152.187,57.795 C153.488,60.458 155.965,62.342 158.862,62.874 C160.945,63.258 163.35,62.972 165.077,64.349 C167.739,66.503 166.625,70.733 168.596,73.367 C170.827,76.393 175.251,75.793 178.535,77.41 C181.519,78.894 183.306,81.961 183.103,85.307" fill-opacity="0" stroke="#987B25" stroke-width="3.604"/>
    <path d="M165.245,82.83 C161.195,84.45 156.56,84.27 152.69,82.335 C149.9,80.94 147.425,78.555 144.095,78.51 C139.01,78.465 136.22,83.775 131.405,84.81 C125.915,86.025 121.415,81.57 116.06,80.445 C111.245,79.41 106.25,81.075 103.28,84.675" fill-opacity="0" stroke="#987B25" stroke-width="3.6"/>
    <path d="M86.63,66.27 C90.23,68.34 94.415,68.115 97.835,65.685 C100.355,63.885 102.56,60.87 105.575,60.825 C110.12,60.735 112.595,67.44 116.915,68.79 C121.82,70.32 125.825,64.695 130.595,63.255 C134.915,61.95 139.415,64.065 142.07,68.61" fill-opacity="0" stroke="#987B25" stroke-width="3.6"/>
    <path d="M75.792,69.999 C77.529,70.095 78.684,71.172 78.911,72.943 C79.063,74.24 78.771,75.931 79.608,76.686 C80.96,77.809 83.79,75.884 85.469,76.401 C87.414,77.022 86.806,80.149 87.766,81.885 C88.61,83.407 90.59,83.704 92.792,82.605" fill-opacity="0" stroke="#987B25" stroke-width="3.604"/>
  </g>
</svg>
