<?xml version="1.0" encoding="UTF-8"?>
<!DOCTYPE svg PUBLIC "-//W3C//DTD SVG 1.1//EN" "http://www.w3.org/Graphics/SVG/1.1/DTD/svg11.dtd">
<svg version="1.1" xmlns="http://www.w3.org/2000/svg" xmlns:xlink="http://www.w3.org/1999/xlink" x="0" y="0" width="780" height="256" viewBox="0, 0, 780, 256">
  <g id="Layer_1">
    <path d="M18.261,0 L237.739,0 C242.944,0 245.632,0 248.448,0.896 C251.563,2.005 253.995,4.437 255.104,7.552 C256,10.368 256,13.056 256,18.347 L256,237.739 C256,242.944 256,245.632 255.104,248.448 C253.995,251.563 251.563,253.995 248.448,255.104 C245.632,256 242.944,256 237.653,256 L18.261,256 C13.056,256 10.368,256 7.552,255.104 C4.437,253.995 2.005,251.563 0.896,248.448 C0,245.632 0,242.944 0,237.653 L0,18.261 C0,13.056 0,10.368 0.896,7.552 C2.005,4.437 4.437,2.005 7.552,0.896 C10.368,0 13.056,0 18.347,0 z M18.261,0" fill="#FFCB3F"/>
    <path d="M203.477,130.962 C244.779,149.881 244.779,180.527 203.477,199.446 C162.133,218.322 95.147,218.322 53.803,199.446 C12.501,180.527 12.501,149.881 53.803,130.962 C95.147,112.086 162.133,112.086 203.477,130.962 z M203.477,130.962" fill="#000000" opacity="0.296"/>
    <path d="M202.197,129.687 C243.499,148.205 243.499,178.199 202.197,196.717 C160.853,215.191 93.867,215.191 52.523,196.717 C11.221,178.199 11.221,148.205 52.523,129.687 C93.867,111.213 160.853,111.213 202.197,129.687 z M202.197,129.687" fill="#E2DED4"/>
    <path d="M178.938,141.243 C205.523,153.539 205.523,173.455 178.938,185.751 C152.326,198.018 109.207,198.018 82.595,185.751 C56.01,173.455 56.01,153.539 82.595,141.243 C109.207,128.976 152.326,128.976 178.938,141.243 z M178.938,141.243" fill="#000000" opacity="0.219"/>
    <path d="M63.488,88.983 L124.8,103.021 L125.525,176.791 L64.981,163.437 L63.488,88.983 z M63.488,88.983" fill="#FEFB40"/>
    <path d="M64.009,89.483 L125.321,103.521 L126.004,177.291 L65.503,163.937 L64.009,89.483 z M64.009,89.483" fill-opacity="0" stroke="#987B25" stroke-width="2.56"/>
    <path d="M62.763,80.912 L126.123,94.949 L191.488,80.741 C193.365,76.645 191.872,71.312 188.245,68.965 C185.557,67.216 182.229,67.643 179.925,65.381 C177.92,63.419 177.408,60.091 175.829,57.701 C173.653,54.373 169.771,53.349 166.229,53.392 C163.328,53.435 160.256,54.16 157.653,52.581 C154.837,50.832 153.003,46.565 149.76,46.48 C147.029,46.437 144.768,49.68 141.995,49.125 C139.264,48.571 138.112,44.859 135.723,43.323 C131.541,40.635 127.104,45.456 122.624,45.2 C118.912,44.987 115.499,41.317 111.744,42.725 C109.227,43.664 107.733,46.864 105.216,47.845 C102.869,48.784 100.395,47.547 98.005,48.059 C94.976,48.656 92.8,51.728 89.856,52.453 C86.613,53.264 83.456,51.216 80.085,52.325 C76.459,53.52 74.539,57.403 71.893,60.091 C69.035,62.992 65.024,64.357 62.677,67.643 C59.989,71.397 60.117,76.901 62.763,80.912 z M62.763,80.912" fill="#CCA232"/>
    <path d="M63.263,81.419 L126.623,95.457 L191.988,81.249 C193.865,77.11 192.372,71.819 188.745,69.473 C186.057,67.723 182.729,68.15 180.425,65.889 C178.42,63.926 177.908,60.598 176.329,58.166 C174.153,54.881 170.271,53.857 166.729,53.899 C163.828,53.942 160.756,54.667 158.153,53.089 C155.337,51.339 153.503,47.073 150.26,46.987 C147.529,46.902 145.268,50.187 142.495,49.633 C139.764,49.078 138.612,45.323 136.223,43.83 C132.041,41.142 127.604,45.963 123.124,45.707 C119.412,45.494 115.999,41.782 112.244,43.233 C109.727,44.171 108.233,47.371 105.716,48.353 C103.369,49.249 100.895,48.054 98.505,48.523 C95.476,49.163 93.3,52.235 90.356,52.961 C87.113,53.771 83.956,51.723 80.585,52.833 C76.959,54.027 75.039,57.91 72.393,60.598 C69.535,63.499 65.524,64.865 63.177,68.15 C60.489,71.905 60.617,77.409 63.263,81.419 z M63.263,81.419" fill-opacity="0" stroke="#987B25" stroke-width="2.56"/>
    <path d="M190.635,88.983 L126.336,103.277 L127.531,176.834 L189.141,163.437 L190.635,88.983 z M190.635,88.983" fill="#FEFB40"/>
    <path d="M191.156,89.483 L126.815,103.777 L128.052,177.334 L189.663,163.937 L191.156,89.483 z M191.156,89.483" fill-opacity="0" stroke="#987B25" stroke-width="2.56"/>
    <path d="M62.123,88.687 L62.123,80.41 L126.336,94.191 L192.597,80.751 L192.171,89.029 L126.208,103.151 L62.123,88.687 z M62.123,88.687" fill="#987B25"/>
    <path d="M144.321,54.824 C145.555,57.349 147.904,59.135 150.651,59.64 C152.626,60.004 154.906,59.733 156.543,61.038 C159.067,63.081 158.011,67.091 159.88,69.589 C161.995,72.458 166.189,71.889 169.304,73.422 C172.133,74.83 173.827,77.737 173.634,80.91" fill-opacity="0" stroke="#987B25" stroke-width="3.418"/>
    <path d="M156.703,78.561 C152.863,80.097 148.468,79.926 144.799,78.091 C142.153,76.769 139.807,74.507 136.649,74.465 C131.828,74.422 129.183,79.457 124.617,80.438 C119.412,81.59 115.145,77.366 110.068,76.299 C105.503,75.318 100.767,76.897 97.951,80.31" fill-opacity="0" stroke="#987B25" stroke-width="3.413"/>
    <path d="M82.164,62.859 C85.577,64.822 89.545,64.609 92.788,62.305 C95.177,60.598 97.268,57.739 100.127,57.697 C104.436,57.611 106.783,63.969 110.879,65.249 C115.529,66.699 119.327,61.366 123.849,60.001 C127.945,58.763 132.212,60.769 134.729,65.078" fill-opacity="0" stroke="#987B25" stroke-width="3.413"/>
    <path d="M71.888,66.395 C73.535,66.486 74.63,67.507 74.845,69.186 C74.989,70.417 74.712,72.02 75.506,72.735 C76.788,73.8 79.471,71.976 81.063,72.466 C82.907,73.054 82.331,76.019 83.241,77.665 C84.042,79.108 85.918,79.39 88.006,78.348" fill-opacity="0" stroke="#987B25" stroke-width="3.418"/>
    <path d="M285.684,30.303 Q311.497,0.14 351.362,0.14 Q404.708,0.14 429.373,40.578 Q442.996,63.283 444,86.154 L399.832,86.154 Q395.53,68.586 388.79,59.637 Q376.744,43.727 353.083,43.727 Q328.992,43.727 315.082,66.183 Q301.172,88.639 301.172,129.74 Q301.172,170.841 315.87,191.308 Q330.569,211.776 353.227,211.776 Q376.458,211.776 388.647,194.209 Q395.387,184.762 399.832,165.869 L443.57,165.869 Q437.834,205.81 414.244,230.835 Q390.654,255.86 353.8,255.86 Q308.198,255.86 282.099,222.051 Q256,188.077 256,128.911 Q256,64.94 285.684,30.303 z" fill="#987B26"/>
    <path d="M522.287,81.87 Q519.635,83.226 516.935,84.063 Q514.234,84.9 509.52,85.618 L503.235,86.575 Q494.397,87.851 490.567,89.684 Q484.086,92.794 484.086,99.332 Q484.086,105.153 488.063,107.744 Q492.04,110.336 497.736,110.336 Q506.771,110.336 514.381,106.03 Q521.992,101.724 522.287,90.322 z M505.298,71.266 Q513.056,70.468 516.394,69.272 Q522.385,67.199 522.385,62.814 Q522.385,57.472 517.818,55.439 Q513.252,53.405 504.414,53.405 Q494.495,53.405 490.371,57.392 Q487.425,60.342 486.443,65.365 L459.437,65.365 Q460.321,53.963 467.293,46.628 Q478.39,35.146 505.396,35.146 Q522.974,35.146 536.624,40.807 Q550.274,46.468 550.274,62.176 L550.274,102.043 Q550.274,106.189 550.471,112.09 Q550.765,116.555 552.14,118.15 Q553.515,119.744 556.265,120.781 L556.265,124.13 L525.822,124.13 Q524.545,121.498 524.054,119.186 Q523.563,116.874 523.269,113.924 Q517.475,119.027 509.913,122.615 Q500.879,126.841 489.487,126.841 Q474.953,126.841 465.477,120.103 Q456,113.365 456,101.007 Q456,84.98 471.221,77.804 Q479.569,73.897 495.772,72.223 z" fill="#FFCB3F"/>
    <path d="M574.825,7 L602.322,7 L602.322,70.309 L637.183,37.618 L671.849,37.618 L634.434,70.867 L673.322,124.13 L639.54,124.13 L613.909,86.973 L602.322,96.781 L602.322,124.13 L574.825,124.13 z" fill="#FFCB3F"/>
    <path d="M714.125,58.588 Q708.773,63.532 707.398,71.983 L750.902,71.983 Q750.214,62.973 744.175,58.309 Q738.136,53.645 729.199,53.645 Q719.477,53.645 714.125,58.588 z M753.259,38.973 Q763.963,43.04 770.935,51.811 Q777.22,59.545 779.086,69.751 Q780.166,75.731 779.97,86.973 L706.711,86.973 Q707.3,100.05 716.826,105.312 Q722.62,108.581 730.77,108.581 Q739.412,108.581 744.813,104.595 Q747.759,102.442 750.018,98.615 L778.595,98.615 Q777.515,106.349 768.677,114.322 Q754.928,127 730.181,127 Q709.755,127 694.141,116.316 Q678.527,105.631 678.527,81.551 Q678.527,58.987 692.619,46.947 Q706.711,34.907 729.199,34.907 Q742.555,34.907 753.259,38.973 z" fill="#FFCB3F"/>
    <path d="M472.591,155.333 L472.591,186.762 L491.829,186.762 Q497.561,186.762 500.427,184.857 Q505.498,181.524 505.498,171.683 Q505.498,161.048 500.593,157.397 Q497.837,155.333 492.325,155.333 z M508.999,138.032 Q513.601,140.81 516.798,146.206 Q519.444,150.651 520.987,156.048 Q522.531,161.444 522.531,168.349 Q522.531,176.683 519.609,184.738 Q516.688,192.794 509.963,196.127 Q515.586,199.381 517.928,205.373 Q520.271,211.365 520.271,223.667 L520.271,231.524 Q520.271,239.54 520.712,242.397 Q521.373,246.921 523.799,249.063 L523.799,252 L505.113,252 Q504.341,248.111 504.01,245.73 Q503.349,240.81 503.294,235.651 L503.183,224.778 Q503.073,213.587 500.345,209.857 Q497.616,206.127 490.12,206.127 L472.591,206.127 L472.591,252 L456,252 L456,135.016 L495.852,135.016 Q504.396,135.254 508.999,138.032 z" fill="#987B26"/>
    <path d="M537.138,132 L554.391,132 L554.391,203.905 Q554.391,215.968 556.375,221.524 Q559.462,231.365 569.824,231.365 Q580.132,231.365 583.219,221.524 Q585.203,215.968 585.203,203.905 L585.203,132 L602.456,132 L602.456,203.905 Q602.456,222.556 598.432,232.952 Q590.936,252 569.824,252 Q548.713,252 541.162,232.952 Q537.138,222.556 537.138,203.905 z" fill="#987B26"/>
    <path d="M672.514,135.016 L696.933,135.016 L696.933,252 L681.113,252 L681.113,172.873 Q681.113,169.46 681.168,163.31 Q681.224,157.159 681.224,153.825 L665.845,252 L649.364,252 L634.095,153.825 Q634.095,157.159 634.15,163.31 Q634.206,169.46 634.206,172.873 L634.206,252 L618.386,252 L618.386,135.016 L643.08,135.016 L657.852,227 z" fill="#987B26"/>
    <path d="M729.179,155.333 L729.179,181.127 L749.132,181.127 Q754.479,181.127 757.814,178.23 Q761.149,175.333 761.149,167.952 Q761.149,159.778 756.739,157.159 Q752.936,155.333 747.038,155.333 z M729.179,200.492 L729.179,231.683 L749.132,231.683 Q754.479,231.683 757.456,229.619 Q762.857,225.81 762.857,215.016 Q762.857,205.889 757.621,202.476 Q754.7,200.571 749.408,200.492 z M773.606,147.476 Q777.354,154.937 777.354,165.333 Q777.354,176.048 773.606,182.556 Q771.511,186.206 767.432,189.222 Q773.661,192.476 776.831,199.54 Q780,206.603 780,216.683 Q780,227.079 776.362,235.333 Q774.047,240.81 770.574,244.54 Q766.661,248.825 761.342,250.413 Q756.022,252 749.794,252 L712.973,252 L712.973,135.016 L752.44,135.016 Q767.377,135.333 773.606,147.476 z" fill="#987B26"/>
  </g>
</svg>
