<?xml version="1.0" encoding="UTF-8"?>
<!DOCTYPE svg PUBLIC "-//W3C//DTD SVG 1.1//EN" "http://www.w3.org/Graphics/SVG/1.1/DTD/svg11.dtd">
<svg version="1.1" xmlns="http://www.w3.org/2000/svg" xmlns:xlink="http://www.w3.org/1999/xlink" x="0" y="0" width="780" height="256" viewBox="0, 0, 780, 256">
  <g id="Layer_1">
    <path d="M18.261,0 L237.739,0 C242.944,0 245.632,0 248.448,0.896 C251.563,2.005 253.995,4.437 255.104,7.552 C256,10.368 256,13.056 256,18.347 L256,237.739 C256,242.944 256,245.632 255.104,248.448 C253.995,251.563 251.563,253.995 248.448,255.104 C245.632,256 242.944,256 237.653,256 L18.261,256 C13.056,256 10.368,256 7.552,255.104 C4.437,253.995 2.005,251.563 0.896,248.448 C0,245.632 0,242.944 0,237.653 L0,18.261 C0,13.056 0,10.368 0.896,7.552 C2.005,4.437 4.437,2.005 7.552,0.896 C10.368,0 13.056,0 18.347,0 z M18.261,0" fill="#FFCB3F"/>
    <path d="M203.477,130.962 C244.779,149.881 244.779,180.527 203.477,199.446 C162.133,218.322 95.147,218.322 53.803,199.446 C12.501,180.527 12.501,149.881 53.803,130.962 C95.147,112.086 162.133,112.086 203.477,130.962 z M203.477,130.962" fill="#000000" opacity="0.296"/>
    <path d="M202.197,129.687 C243.499,148.205 243.499,178.199 202.197,196.717 C160.853,215.191 93.867,215.191 52.523,196.717 C11.221,178.199 11.221,148.205 52.523,129.687 C93.867,111.213 160.853,111.213 202.197,129.687 z M202.197,129.687" fill="#E2DED4"/>
    <path d="M178.938,141.243 C205.523,153.539 205.523,173.455 178.938,185.751 C152.326,198.018 109.207,198.018 82.595,185.751 C56.01,173.455 56.01,153.539 82.595,141.243 C109.207,128.976 152.326,128.976 178.938,141.243 z M178.938,141.243" fill="#000000" opacity="0.219"/>
    <path d="M63.488,88.983 L124.8,103.021 L125.525,176.791 L64.981,163.437 L63.488,88.983 z M63.488,88.983" fill="#FEFB40"/>
    <path d="M64.009,89.483 L125.321,103.521 L126.004,177.291 L65.503,163.937 L64.009,89.483 z M64.009,89.483" fill-opacity="0" stroke="#987B25" stroke-width="2.56"/>
    <path d="M62.763,80.912 L126.123,94.949 L191.488,80.741 C193.365,76.645 191.872,71.312 188.245,68.965 C185.557,67.216 182.229,67.643 179.925,65.381 C177.92,63.419 177.408,60.091 175.829,57.701 C173.653,54.373 169.771,53.349 166.229,53.392 C163.328,53.435 160.256,54.16 157.653,52.581 C154.837,50.832 153.003,46.565 149.76,46.48 C147.029,46.437 144.768,49.68 141.995,49.125 C139.264,48.571 138.112,44.859 135.723,43.323 C131.541,40.635 127.104,45.456 122.624,45.2 C118.912,44.987 115.499,41.317 111.744,42.725 C109.227,43.664 107.733,46.864 105.216,47.845 C102.869,48.784 100.395,47.547 98.005,48.059 C94.976,48.656 92.8,51.728 89.856,52.453 C86.613,53.264 83.456,51.216 80.085,52.325 C76.459,53.52 74.539,57.403 71.893,60.091 C69.035,62.992 65.024,64.357 62.677,67.643 C59.989,71.397 60.117,76.901 62.763,80.912 z M62.763,80.912" fill="#CCA232"/>
    <path d="M63.263,81.419 L126.623,95.457 L191.988,81.249 C193.865,77.11 192.372,71.819 188.745,69.473 C186.057,67.723 182.729,68.15 180.425,65.889 C178.42,63.926 177.908,60.598 176.329,58.166 C174.153,54.881 170.271,53.857 166.729,53.899 C163.828,53.942 160.756,54.667 158.153,53.089 C155.337,51.339 153.503,47.073 150.26,46.987 C147.529,46.902 145.268,50.187 142.495,49.633 C139.764,49.078 138.612,45.323 136.223,43.83 C132.041,41.142 127.604,45.963 123.124,45.707 C119.412,45.494 115.999,41.782 112.244,43.233 C109.727,44.171 108.233,47.371 105.716,48.353 C103.369,49.249 100.895,48.054 98.505,48.523 C95.476,49.163 93.3,52.235 90.356,52.961 C87.113,53.771 83.956,51.723 80.585,52.833 C76.959,54.027 75.039,57.91 72.393,60.598 C69.535,63.499 65.524,64.865 63.177,68.15 C60.489,71.905 60.617,77.409 63.263,81.419 z M63.263,81.419" fill-opacity="0" stroke="#987B25" stroke-width="2.56"/>
    <path d="M190.635,88.983 L126.336,103.277 L127.531,176.834 L189.141,163.437 L190.635,88.983 z M190.635,88.983" fill="#FEFB40"/>
    <path d="M191.156,89.483 L126.815,103.777 L128.052,177.334 L189.663,163.937 L191.156,89.483 z M191.156,89.483" fill-opacity="0" stroke="#987B25" stroke-width="2.56"/>
    <path d="M62.123,88.687 L62.123,80.41 L126.336,94.191 L192.597,80.751 L192.171,89.029 L126.208,103.151 L62.123,88.687 z M62.123,88.687" fill="#987B25"/>
    <path d="M144.321,54.824 C145.555,57.349 147.904,59.135 150.651,59.64 C152.626,60.004 154.906,59.733 156.543,61.038 C159.067,63.081 158.011,67.091 159.88,69.589 C161.995,72.458 166.189,71.889 169.304,73.422 C172.133,74.83 173.827,77.737 173.634,80.91" fill-opacity="0" stroke="#987B25" stroke-width="3.418"/>
    <path d="M156.703,78.561 C152.863,80.097 148.468,79.926 144.799,78.091 C142.153,76.769 139.807,74.507 136.649,74.465 C131.828,74.422 129.183,79.457 124.617,80.438 C119.412,81.59 115.145,77.366 110.068,76.299 C105.503,75.318 100.767,76.897 97.951,80.31" fill-opacity="0" stroke="#987B25" stroke-width="3.413"/>
    <path d="M82.164,62.859 C85.577,64.822 89.545,64.609 92.788,62.305 C95.177,60.598 97.268,57.739 100.127,57.697 C104.436,57.611 106.783,63.969 110.879,65.249 C115.529,66.699 119.327,61.366 123.849,60.001 C127.945,58.763 132.212,60.769 134.729,65.078" fill-opacity="0" stroke="#987B25" stroke-width="3.413"/>
    <path d="M71.888,66.395 C73.535,66.486 74.63,67.507 74.845,69.186 C74.989,70.417 74.712,72.02 75.506,72.735 C76.788,73.8 79.471,71.976 81.063,72.466 C82.907,73.054 82.331,76.019 83.241,77.665 C84.042,79.108 85.918,79.39 88.006,78.348" fill-opacity="0" stroke="#987B25" stroke-width="3.418"/>
    <path d="M291.947,30.303 Q316.249,0.14 353.783,0.14 Q404.007,0.14 427.229,40.578 Q440.055,63.283 441,86.154 L399.416,86.154 Q395.366,68.586 389.021,59.637 Q377.68,43.727 355.403,43.727 Q332.721,43.727 319.625,66.183 Q306.529,88.639 306.529,129.74 Q306.529,170.841 320.367,191.308 Q334.206,211.776 355.538,211.776 Q377.41,211.776 388.886,194.209 Q395.231,184.762 399.416,165.869 L440.595,165.869 Q435.194,205.81 412.985,230.835 Q390.776,255.86 356.078,255.86 Q313.144,255.86 288.572,222.051 Q264,188.077 264,128.912 Q264,64.94 291.947,30.303 z" fill="#987B26"/>
    <path d="M510.287,201.528 Q507.635,203.051 504.935,203.991 Q502.234,204.932 497.52,205.738 L491.235,206.812 Q482.397,208.245 478.567,210.305 Q472.086,213.799 472.086,221.143 Q472.086,227.681 476.063,230.592 Q480.04,233.503 485.736,233.503 Q494.771,233.503 502.381,228.666 Q509.992,223.83 510.287,211.022 z M493.298,189.616 Q501.056,188.72 504.395,187.377 Q510.385,185.048 510.385,180.122 Q510.385,174.121 505.818,171.837 Q501.252,169.553 492.414,169.553 Q482.495,169.553 478.371,174.032 Q475.425,177.345 474.443,182.988 L447.437,182.988 Q448.321,170.18 455.293,161.94 Q466.39,149.043 493.396,149.043 Q510.974,149.043 524.624,155.402 Q538.274,161.761 538.274,179.405 L538.274,224.188 Q538.274,228.845 538.471,235.473 Q538.765,240.489 540.14,242.28 Q541.515,244.072 544.265,245.236 L544.265,248.998 L513.822,248.998 Q512.545,246.042 512.054,243.445 Q511.563,240.847 511.269,237.533 Q505.475,243.265 497.913,247.296 Q488.879,252.043 477.487,252.043 Q462.953,252.043 453.477,244.475 Q444,236.906 444,223.024 Q444,205.021 459.221,196.96 Q467.569,192.572 483.772,190.691 z" fill="#FFCB3F"/>
    <path d="M562.825,132.043 L590.322,132.043 L590.322,196.903 L625.183,163.411 L659.849,163.411 L622.434,197.475 L661.322,252.043 L627.54,252.043 L601.909,213.976 L590.322,224.024 L590.322,252.043 L562.825,252.043 z" fill="#FFCB3F"/>
    <path d="M705.125,177.486 Q699.773,183.015 698.398,192.468 L741.902,192.468 Q741.214,182.39 735.175,177.174 Q729.136,171.957 720.199,171.957 Q710.477,171.957 705.125,177.486 z M744.259,155.548 Q754.963,160.096 761.935,169.906 Q768.22,178.556 770.086,189.971 Q771.166,196.659 770.97,209.233 L697.711,209.233 Q698.3,223.858 707.826,229.744 Q713.62,233.4 721.77,233.4 Q730.412,233.4 735.813,228.941 Q738.759,226.533 741.018,222.253 L769.595,222.253 Q768.515,230.903 759.677,239.821 Q745.928,254 721.181,254 Q700.755,254 685.141,242.05 Q669.527,230.1 669.527,203.169 Q669.527,177.932 683.619,164.466 Q697.711,151 720.199,151 Q733.555,151 744.259,155.548 z" fill="#FFCB3F"/>
    <path d="M469.333,30.791 L469.333,67.593 L491.748,67.593 Q498.428,67.593 501.767,65.362 Q507.676,61.459 507.676,49.935 Q507.676,37.482 501.96,33.207 Q498.749,30.791 492.326,30.791 z M511.755,10.531 Q517.118,13.784 520.843,20.104 Q523.926,25.308 525.724,31.627 Q527.523,37.947 527.523,46.032 Q527.523,55.79 524.119,65.223 Q520.715,74.656 512.879,78.559 Q519.43,82.369 522.16,89.386 Q524.889,96.402 524.889,110.807 L524.889,120.007 Q524.889,129.394 525.403,132.739 Q526.174,138.036 529,140.546 L529,143.984 L507.227,143.984 Q506.328,139.43 505.942,136.642 Q505.172,130.88 505.107,124.84 L504.979,112.108 Q504.85,99.004 501.671,94.636 Q498.492,90.269 489.757,90.269 L469.333,90.269 L469.333,143.984 L450,143.984 L450,7 L496.437,7 Q506.392,7.279 511.755,10.531 z" fill="#987B26"/>
    <path d="M530,7 L550.867,7 L550.867,77.107 Q550.867,88.869 553.267,94.286 Q557,103.881 569.533,103.881 Q582,103.881 585.733,94.286 Q588.133,88.869 588.133,77.107 L588.133,7 L609,7 L609,77.107 Q609,95.292 604.133,105.429 Q595.067,124 569.533,124 Q544,124 534.867,105.429 Q530,95.292 530,77.107 z" fill="#987B26"/>
    <path d="M668.441,7 L693,7 L693,143.984 L677.089,143.984 L677.089,51.329 Q677.089,47.333 677.145,40.131 Q677.2,32.928 677.2,29.025 L661.733,143.984 L645.156,143.984 L629.8,29.025 Q629.8,32.928 629.855,40.131 Q629.911,47.333 629.911,51.329 L629.911,143.984 L614,143.984 L614,7 L638.836,7 L653.694,114.71 z" fill="#987B26"/>
    <path d="M717.1,30.791 L717.1,60.994 L740.618,60.994 Q746.92,60.994 750.851,57.602 Q754.781,54.21 754.781,45.567 Q754.781,35.995 749.584,32.928 Q745.101,30.791 738.15,30.791 z M717.1,83.67 L717.1,120.193 L740.618,120.193 Q746.92,120.193 750.428,117.777 Q756.795,113.316 756.795,100.677 Q756.795,89.99 750.623,85.994 Q747.18,83.763 740.943,83.67 z M769.464,21.591 Q773.882,30.326 773.882,42.501 Q773.882,55.047 769.464,62.667 Q766.995,66.942 762.188,70.474 Q769.529,74.284 773.264,82.555 Q777,90.826 777,102.629 Q777,114.803 772.712,124.468 Q769.984,130.88 765.891,135.248 Q761.278,140.267 755.009,142.125 Q748.739,143.984 741.398,143.984 L698,143.984 L698,7 L744.516,7 Q762.123,7.372 769.464,21.591 z" fill="#987B26"/>
  </g>
</svg>
